<svg width="405" height="183" viewBox="0 0 405 183" fill="none" xmlns="http://www.w3.org/2000/svg">
<path d="M50.944 145.368C48.4693 147.501 45.6107 149.165 42.368 150.36C39.1253 151.469 35.712 152.024 32.128 152.024C28.8853 152.024 25.728 151.683 22.656 151C19.584 150.232 16.768 149.251 14.208 148.056C11.648 146.861 9.344 145.496 7.296 143.96C5.33333 142.424 3.79733 140.803 2.688 139.096V124.248H12.8V135.64C15.0187 137.347 17.664 138.84 20.736 140.12C23.808 141.315 27.264 141.912 31.104 141.912C33.3227 141.912 35.456 141.613 37.504 141.016C39.552 140.333 41.3867 139.395 43.008 138.2C44.544 136.92 45.7813 135.341 46.72 133.464C47.6587 131.587 48.128 129.411 48.128 126.936C48.128 125.4 48 123.864 47.744 122.328C47.5733 120.792 47.1467 119.469 46.464 118.36C45.3547 116.568 44.032 115.16 42.496 114.136C41.0453 113.027 39.3387 112.003 37.376 111.064C34.304 109.784 30.976 108.675 27.392 107.736C23.808 106.797 20.48 105.517 17.408 103.896C14.2507 102.275 11.6053 100.013 9.472 97.112C7.424 94.2107 6.35733 90.1147 6.272 84.824C6.18667 82.008 6.57067 79.192 7.424 76.376C8.27733 73.56 9.68533 71 11.648 68.696C13.6107 66.392 16.2133 64.5147 19.456 63.064C22.6987 61.6133 26.6667 60.888 31.36 60.888C32.896 60.888 34.56 60.9733 36.352 61.144C38.144 61.3147 40.0213 61.656 41.984 62.168C43.9467 62.68 45.952 63.448 48 64.472C50.1333 65.496 52.224 66.8613 54.272 68.568V81.112H44.16V73.56C42.5387 72.8773 40.6613 72.28 38.528 71.768C36.3947 71.256 34.048 71 31.488 71C28.928 71 26.7093 71.4267 24.832 72.28C22.9547 73.048 21.4187 74.1147 20.224 75.48C19.1147 76.76 18.2613 78.2533 17.664 79.96C17.152 81.5813 16.896 83.3307 16.896 85.208C16.896 87.768 17.4933 89.8587 18.688 91.48C19.8827 93.016 21.4613 94.3387 23.424 95.448C26.496 97.0693 30.1653 98.52 34.432 99.8C38.6987 100.995 42.7947 102.531 46.72 104.408C50.304 106.115 53.2053 108.76 55.424 112.344C57.6427 115.928 58.752 120.835 58.752 127.064C58.752 130.904 58.0267 134.36 56.576 137.432C55.2107 140.504 53.3333 143.149 50.944 145.368ZM133.061 151H113.989V148.44C113.989 147.843 113.989 147.416 113.989 147.16C113.989 146.904 113.989 146.477 113.989 145.88C113.904 146.136 113.477 146.605 112.709 147.288C111.941 147.971 110.874 148.653 109.509 149.336C108.058 150.104 106.352 150.744 104.389 151.256C102.426 151.853 100.208 152.152 97.733 152.152C94.149 152.152 90.7783 151.512 87.621 150.232C84.4637 148.867 81.733 147.032 79.429 144.728C77.125 142.424 75.2903 139.779 73.925 136.792C72.645 133.72 72.005 130.477 72.005 127.064C72.005 123.736 72.645 120.536 73.925 117.464C75.2903 114.392 77.125 111.704 79.429 109.4C81.733 107.096 84.4637 105.261 87.621 103.896C90.7783 102.531 94.149 101.848 97.733 101.848C102.426 101.848 106.138 102.701 108.869 104.408C111.6 106.029 113.306 107.565 113.989 109.016C114.074 108.163 114.16 107.224 114.245 106.2C114.416 105.091 114.501 104.024 114.501 103H123.333V140.888H133.061V151ZM97.733 112.216C95.429 112.216 93.2957 112.643 91.333 113.496C89.3703 114.264 87.749 115.373 86.469 116.824C85.2743 118.104 84.3357 119.597 83.653 121.304C83.0557 123.011 82.757 124.888 82.757 126.936C82.757 129.325 83.2263 131.544 84.165 133.592C85.189 135.64 86.5543 137.347 88.261 138.712C89.4557 139.651 90.8637 140.419 92.485 141.016C94.1063 141.528 95.8557 141.784 97.733 141.784C99.8663 141.784 101.786 141.443 103.493 140.76C105.285 140.077 106.821 139.139 108.101 137.944C109.552 136.579 110.661 134.957 111.429 133.08C112.282 131.203 112.709 129.155 112.709 126.936C112.709 124.717 112.282 122.669 111.429 120.792C110.661 118.915 109.594 117.336 108.229 116.056C106.864 114.861 105.285 113.923 103.493 113.24C101.786 112.557 99.8663 112.216 97.733 112.216ZM149.685 183V172.888H158.261V113.112H148.405V103H167.093C167.178 104.109 167.264 105.176 167.349 106.2C167.434 107.139 167.52 108.077 167.605 109.016C168.458 107.821 170.25 106.328 172.981 104.536C175.712 102.744 179.338 101.848 183.861 101.848C187.445 101.848 190.816 102.531 193.973 103.896C197.13 105.176 199.861 106.968 202.165 109.272C204.469 111.576 206.261 114.264 207.541 117.336C208.906 120.323 209.589 123.523 209.589 126.936C209.589 130.349 208.906 133.592 207.541 136.664C206.261 139.736 204.469 142.424 202.165 144.728C199.861 147.032 197.13 148.867 193.973 150.232C190.816 151.512 187.445 152.152 183.861 152.152C181.472 152.152 179.338 151.896 177.461 151.384C175.584 150.872 173.962 150.275 172.597 149.592C171.232 148.909 170.293 148.397 169.781 148.056C169.269 147.629 168.885 147.245 168.629 146.904C168.714 147.16 168.757 147.459 168.757 147.8C168.842 148.141 168.885 148.397 168.885 148.568V172.888H178.101V183H149.685ZM183.861 112.216C181.557 112.216 179.466 112.6 177.589 113.368C175.712 114.136 174.133 115.203 172.853 116.568C171.573 117.848 170.592 119.384 169.909 121.176C169.226 122.968 168.885 124.888 168.885 126.936C168.885 129.155 169.269 131.245 170.037 133.208C170.89 135.085 172.085 136.707 173.621 138.072C174.901 139.181 176.394 140.077 178.101 140.76C179.893 141.443 181.813 141.784 183.861 141.784C185.909 141.784 187.786 141.485 189.493 140.888C191.2 140.205 192.693 139.309 193.973 138.2C195.509 136.92 196.704 135.299 197.557 133.336C198.41 131.373 198.837 129.24 198.837 126.936C198.837 124.547 198.368 122.413 197.429 120.536C196.576 118.573 195.381 116.909 193.845 115.544C192.565 114.52 191.072 113.709 189.365 113.112C187.658 112.515 185.824 112.216 183.861 112.216ZM255.778 146.264C254.583 147.885 252.919 149.251 250.786 150.36C248.653 151.469 245.879 152.024 242.466 152.024C239.309 152.024 236.279 151.64 233.378 150.872C230.477 150.019 228.173 148.653 226.466 146.776V135.64H235.938V140.632C236.962 141.059 237.943 141.357 238.882 141.528C239.906 141.613 241.143 141.656 242.594 141.656C243.277 141.656 243.959 141.571 244.642 141.4C245.41 141.229 246.093 140.931 246.69 140.504C247.117 140.163 247.458 139.736 247.714 139.224C248.055 138.627 248.226 137.901 248.226 137.048C248.226 135.512 247.757 134.36 246.818 133.592C245.965 132.739 244.77 132.056 243.234 131.544C241.783 130.947 240.162 130.392 238.37 129.88C236.578 129.283 234.871 128.472 233.25 127.448C231.714 126.509 230.434 125.144 229.41 123.352C228.386 121.56 227.874 119.171 227.874 116.184C227.874 113.539 228.386 111.32 229.41 109.528C230.434 107.736 231.714 106.285 233.25 105.176C234.786 103.981 236.45 103.128 238.242 102.616C240.034 102.104 241.655 101.848 243.106 101.848C243.959 101.848 244.983 101.933 246.178 102.104C247.458 102.275 248.738 102.573 250.018 103C251.298 103.427 252.535 103.981 253.73 104.664C255.01 105.347 256.119 106.2 257.058 107.224V118.36H247.586V112.856C246.903 112.685 246.263 112.557 245.666 112.472C245.069 112.301 244.429 112.216 243.746 112.216C242.807 112.216 241.997 112.344 241.314 112.6C240.631 112.771 240.077 113.027 239.65 113.368C239.223 113.795 238.925 114.307 238.754 114.904C238.583 115.416 238.541 116.013 238.626 116.696C238.797 117.72 239.437 118.573 240.546 119.256C241.655 119.853 242.978 120.451 244.514 121.048C245.965 121.645 247.543 122.328 249.25 123.096C250.957 123.864 252.535 124.803 253.986 125.912C255.437 127.107 256.631 128.6 257.57 130.392C258.509 132.099 258.978 134.275 258.978 136.92C258.978 138.115 258.722 139.565 258.21 141.272C257.783 142.979 256.973 144.643 255.778 146.264ZM319.654 138.712C317.947 142.808 315.174 146.093 311.334 148.568C307.579 150.957 303.398 152.152 298.79 152.152C293.755 152.152 289.787 150.829 286.886 148.184C283.985 145.539 282.449 142.083 282.278 137.816V113.112H273.83V103H292.902V132.952C293.073 135.256 293.883 137.261 295.334 138.968C296.87 140.589 299.259 141.485 302.502 141.656C304.721 141.656 306.811 141.272 308.774 140.504C310.822 139.736 312.614 138.669 314.15 137.304C315.686 135.939 316.923 134.317 317.862 132.44C318.801 130.563 319.27 128.515 319.27 126.296V113.112H310.822V103H329.894V142.04H337.83V151H319.27V144.472L319.654 138.712ZM384.206 151H363.982V113.368H353.23V103H363.982V71.768H374.606V103H387.15V113.368H374.606V140.888H384.206V151Z" fill="#E8821A"/>
<path d="M402.469 49.9201C401.841 48.405 400.266 47.6407 400.013 46.872C399.761 46.1033 399.447 43.0371 398.819 41.4994C398.191 39.9664 399.447 42.2457 400.265 40.1372C400.646 39.1526 399.752 37.5655 398.695 36.1584C408.225 26.4384 404.805 9.30009 402.217 3.79285C399.575 -1.83593 394.664 0.46595 394.664 0.46595C386.236 4.80441 380.379 15.6215 378.998 18.3642C376.096 17.3751 372.782 16.7592 369.022 16.7547C365.248 16.7592 361.921 17.3796 359.01 18.3778C357.638 15.6533 351.776 4.80936 343.335 0.46687C343.335 0.46687 338.428 -1.83501 335.782 3.79377C333.194 9.30573 329.77 26.4661 339.326 36.1823C338.278 37.5851 337.397 39.1585 337.773 40.1387C338.592 42.2472 339.848 39.9678 339.22 41.5009C338.592 43.034 338.278 46.1047 338.025 46.8735C337.773 47.6423 336.203 48.4065 335.57 49.9216C335.15 50.9287 335.194 53.0553 337.269 53.2485C337.269 53.2485 334.986 55.928 335.884 57.6815C336.702 59.282 338.339 58.4278 338.339 58.4278C338.339 58.4278 337.145 60.6217 338.782 62.074C340.224 63.3508 341.047 62.5235 341.804 62.1999C341.804 62.1999 344.339 72.9719 369.044 71.9289H369.048C393.837 72.801 396.231 62.1999 396.231 62.1999C396.987 62.5191 397.81 63.3463 399.252 62.074C400.889 60.6263 399.695 58.4278 399.695 58.4278C399.695 58.4278 401.332 59.282 402.15 57.6815C403.048 55.9281 400.765 53.2485 400.765 53.2485C402.84 53.0552 402.885 50.9332 402.464 49.9216L402.469 49.9201ZM393.912 3.14948C393.912 3.14948 397.186 -0.047022 399.699 5.32544C402.217 10.698 406.371 26.0423 397.31 34.8677C397.31 34.8677 393.058 29.3468 387.081 24.4688C387.13 24.4373 389.457 23.057 392.851 23.3538C393.474 23.4167 394.023 22.9402 394.076 22.3063C394.129 21.6723 393.669 21.1148 393.045 21.0609C391.156 20.8901 389.541 21.1553 388.329 21.5015C389.187 19.1637 390.789 15.5221 393.187 12.9369C393.616 12.4739 393.594 11.7455 393.138 11.3094C392.682 10.8733 391.966 10.8958 391.537 11.3589C387.422 15.8008 385.528 22.6794 385.405 23.1606C384.613 22.5671 383.803 21.9872 382.967 21.4431C382.967 21.4431 388.254 8.27065 393.917 3.15358L393.912 3.14948ZM338.309 5.32544C340.826 -0.0471373 344.095 3.14948 344.095 3.14948C349.758 8.26574 355.045 21.439 355.045 21.439C354.209 21.983 353.4 22.563 352.608 23.1565C352.479 22.6799 350.59 15.8013 346.476 11.3547C346.047 10.8917 345.33 10.8737 344.874 11.3053C344.418 11.7414 344.396 12.4697 344.825 12.9328C347.223 15.5179 348.825 19.1596 349.683 21.4974C348.467 21.1512 346.852 20.886 344.967 21.0568C344.343 21.1108 343.883 21.6683 343.936 22.3021C343.989 22.9361 344.533 23.4126 345.162 23.3497C348.568 23.044 350.913 24.4512 350.931 24.4647C344.949 29.3427 340.702 34.8636 340.702 34.8636C331.641 26.0382 335.796 10.6939 338.313 5.32133L338.309 5.32544ZM397.81 57.1176L396.615 57.0412C396.509 57.2165 396.487 57.2525 396.381 57.4323L397.699 59.6937C397.907 60.0534 397.681 60.512 397.274 60.5524L395.199 60.7637C394.77 61.582 394.257 62.3283 393.66 62.9576C389.908 66.9005 387.368 69.5215 369.079 69.5215H368.99C350.701 69.5215 348.161 66.9005 344.41 62.9576C343.812 62.3282 343.299 61.5819 342.87 60.7637L340.795 60.5524C340.388 60.5119 340.158 60.0534 340.37 59.6937L341.689 57.4323C341.583 57.257 341.561 57.221 341.454 57.0412L340.26 57.1176C339.76 57.1491 339.472 56.5557 339.804 56.1735L341.37 54.3572C341.379 52.5949 341.72 50.8954 342.437 49.5287C344.449 45.6938 345.896 44.4124 348.184 40.8742C349.745 38.4554 352.17 37.0483 353.661 36.3648C354.254 36.0906 354.227 35.2094 353.612 34.9891C352.479 34.5755 351.121 34.3957 351.121 34.3957C351.121 34.3957 348.436 34.2248 351.626 31.325C354.815 28.4252 358.421 29.2794 358.421 29.2794C368.991 30.8125 369.035 41.8143 369.035 41.8143H369.039C369.039 41.8143 369.079 30.8174 379.653 29.2794C379.653 29.2794 383.259 28.4252 386.449 31.325C389.638 34.2248 386.953 34.3957 386.953 34.3957C386.953 34.3957 385.59 34.58 384.462 34.9891C383.847 35.2139 383.821 36.0951 384.413 36.3648C385.904 37.0482 388.329 38.4554 389.891 40.8742C392.178 44.4124 393.625 45.6893 395.638 49.5287C396.354 50.8954 396.695 52.5904 396.704 54.3572L398.27 56.1735C398.597 56.5557 398.31 57.1491 397.814 57.1176H397.81Z" fill="#1C1007"/>
<path d="M354.957 42.3401C352.343 41.6747 349.635 43.536 348.91 46.4987C348.18 49.457 349.71 52.3973 352.321 53.0582C354.935 53.7236 357.643 51.8622 358.368 48.8995C359.098 45.9412 357.568 43.0009 354.957 42.3401ZM354.705 47.0472C353.75 47.0472 352.971 46.2604 352.971 45.2849C352.971 44.3137 353.745 43.5225 354.705 43.5225C355.661 43.5225 356.439 44.3093 356.439 45.2849C356.439 46.256 355.665 47.0472 354.705 47.0472Z" fill="#1C1007"/>
<path d="M383.196 42.3401C380.582 43.0054 379.055 45.9412 379.785 48.8995C380.515 51.8577 383.223 53.719 385.833 53.0582C388.448 52.3928 389.974 49.457 389.244 46.4987C388.514 43.5405 385.807 41.6792 383.196 42.3401ZM383.449 47.0472C382.493 47.0472 381.714 46.2604 381.714 45.2848C381.714 44.3137 382.489 43.5225 383.449 43.5225C384.404 43.5225 385.183 44.3093 385.183 45.2848C385.183 46.2559 384.409 47.0472 383.449 47.0472Z" fill="#1C1007"/>
<path d="M379.074 56.9328C378.45 56.9328 377.941 57.4498 377.941 58.0838C377.941 59.7832 376.149 61.1679 373.951 61.1679C371.752 61.1679 369.96 59.7832 369.96 58.0838C369.96 58.0793 369.956 58.0748 369.956 58.0658V56.7125C370.482 56.5462 370.982 56.2854 371.424 55.8988L373.769 53.8351C375.048 52.7112 374.539 50.5846 372.898 50.1845C370.257 49.5371 367.505 49.5371 364.863 50.1845L364.753 50.2114C363.129 50.6116 362.607 52.6931 363.846 53.8306L366.022 55.8357C366.514 56.2898 367.093 56.582 367.699 56.7484V58.0656C367.699 58.0701 367.695 58.0746 367.695 58.0836C367.695 59.7831 365.903 61.1678 363.704 61.1678C361.505 61.1678 359.714 59.7831 359.714 58.0836C359.714 57.4497 359.205 56.9327 358.581 56.9327C357.957 56.9327 357.448 57.4497 357.448 58.0836C357.448 61.0553 360.253 63.4697 363.704 63.4697C365.823 63.4697 367.699 62.5525 368.832 61.1633C369.964 62.557 371.836 63.4697 373.96 63.4697C377.406 63.4697 380.215 61.0553 380.215 58.0836C380.215 57.4497 379.707 56.9327 379.083 56.9327L379.074 56.9328Z" fill="#1C1007"/>
</svg>
